# xmcd
#
# Track frame offsets:
# 150
# 10247
# 22087
# 31210
# 41957
# 52602
# 65392
# 75352
# 89730
# 99162
# 108282
# 123937
# 133695
# 146067
# 157740
# 170487
# 182377
# 195122
#
# Disc length: 2761 seconds
#
#
# Revision: 0
# Processed by: cddbd v1.5.2PL0 Copyright (c) Steve Scherf et al.
# Submitted via: FreeRIP 2.96 
#
DISCID=d70ac712
DTITLE=Sileira e Barrinha - Pedro Bento e Zé da Estrada - Caçula e Marinheiro - Zilo e Zalo - Duplas Famosas
DYEAR=1900
DGENRE=Sertanojo
TTITLE0=Sei que me amas
TTITLE1=Coração solitário
TTITLE2=Não posso esquecer-te
TTITLE3=Minha canção
TTITLE4=Vem meu amor
TTITLE5=Não me pergunte nada
TTITLE6=Ficar ou partir
TTITLE7=A lua é testemunha
TTITLE8=Rosalina
TTITLE9=Esqueça, coração
TTITLE10=Berrante de ouro
TTITLE11=Mineiro de Uberaba
TTITLE12=Coração apaixonado
TTITLE13=Amarga lembrança
TTITLE14=O silêncio do seresteiro
TTITLE15=Arrependimento
TTITLE16=Saudade cruel
TTITLE17=Mensagem de amor
EXTD=
EXTT0=
EXTT1=
EXTT2=
EXTT3=
EXTT4=
EXTT5=
EXTT6=
EXTT7=
EXTT8=
EXTT9=
EXTT10=
EXTT11=
EXTT12=
EXTT13=
EXTT14=
EXTT15=
EXTT16=
EXTT17=
PLAYORDER=
